<svg width="24" height="24" viewBox="0 0 24 24" fill="none" xmlns="http://www.w3.org/2000/svg">
<g clip-path="url(#clip0_9900_5408)">
<mask id="mask0_9900_5408" style="mask-type:luminance" maskUnits="userSpaceOnUse" x="0" y="0" width="24" height="24">
<path d="M24 0H0V24H24V0Z" fill="white"/>
</mask>
<g mask="url(#mask0_9900_5408)">
<path d="M11.145 18.0938C11.145 16.6721 11.145 15.2504 11.145 13.8286C11.145 13.2917 11.0595 13.2032 10.5376 13.2017C8.31955 13.2017 6.10147 13.1987 3.88489 13.2017C3.06604 13.2017 2.67311 13.5797 2.67161 14.3925C2.66561 16.8371 2.66561 19.2831 2.67161 21.7276C2.67311 22.5555 3.05254 22.9229 3.87139 22.9229C6.11797 22.9229 8.36454 22.9139 10.6096 22.9319C11.0205 22.9349 11.16 22.8134 11.154 22.3995C11.1345 20.9643 11.1465 19.5276 11.1465 18.0923L11.145 18.0938Z" fill="url(#paint0_linear_9900_5408)"/>
<path d="M20.1493 13.2032C17.9177 13.2002 15.6862 13.2002 13.4531 13.2032C12.9462 13.2032 12.8592 13.2917 12.8577 13.8001C12.8562 15.2354 12.8577 16.6721 12.8577 18.1073C12.8577 19.5426 12.8682 20.9793 12.8517 22.4145C12.8472 22.7999 12.9702 22.9364 13.3661 22.9334C15.6262 22.9184 17.8863 22.9274 20.1478 22.9259C20.9412 22.9259 21.3311 22.554 21.3341 21.7591C21.3416 19.2996 21.3416 16.8401 21.3341 14.3805C21.3326 13.5932 20.9337 13.2047 20.1508 13.2032H20.1493Z" fill="url(#paint1_linear_9900_5408)"/>
<path d="M6.63387 12.0725C7.97012 12.0725 9.30637 12.0695 10.6411 12.074C10.9606 12.074 11.151 11.984 11.148 11.615C11.1375 10.1798 11.1405 8.74458 11.1465 7.30935C11.1465 6.96741 10.992 6.81444 10.6576 6.81444C7.97162 6.81594 5.28562 6.80694 2.59963 6.82194C1.89326 6.82644 1.50933 7.25836 1.50483 7.96323C1.50033 8.90055 1.50333 9.83937 1.50483 10.7767C1.50483 11.6915 1.88126 12.0695 2.79609 12.071C4.07535 12.074 5.35461 12.071 6.63387 12.071V12.0725Z" fill="url(#paint2_linear_9900_5408)"/>
<path d="M22.4979 8.03971C22.4964 7.22987 22.1125 6.82044 21.3071 6.81894C18.6631 6.81144 16.0191 6.81894 13.3751 6.81294C12.9912 6.81294 12.8487 6.97041 12.8532 7.35284C12.8667 8.73108 12.8577 10.1108 12.8592 11.4891C12.8592 12.0005 12.9297 12.0725 13.4561 12.074C14.7503 12.077 16.0431 12.074 17.3374 12.074C18.6166 12.074 19.8959 12.074 21.1751 12.074C22.1245 12.074 22.4994 11.7035 22.4994 10.7692C22.4994 9.85887 22.5009 8.95004 22.4994 8.03971H22.4979Z" fill="url(#paint3_linear_9900_5408)"/>
<path d="M13.7695 5.67616C14.5809 5.86062 15.4042 5.9926 16.2921 6.15757C17.0044 6.01059 17.7753 5.93411 18.4876 5.68816C19.6559 5.28323 20.1913 4.28142 19.9724 3.14613C19.7054 1.77239 18.9076 1.02703 17.5863 1.09002C15.6172 1.183 14.0065 2.09483 12.6912 3.51956C12.1468 4.10895 12.2743 4.81382 12.9327 5.27573C13.1831 5.4512 13.4756 5.60717 13.7695 5.67466V5.67616ZM17.3419 2.72471C17.9777 2.63473 18.2282 2.81769 18.3512 3.39359C18.4471 3.842 18.2147 4.05946 17.8503 4.19744C17.0584 4.49738 16.2351 4.44039 15.4162 4.3699C15.0848 4.34141 14.7578 4.25292 14.3154 4.17044C15.2992 3.42358 16.2306 2.88368 17.3419 2.72621V2.72471Z" fill="url(#paint4_linear_9900_5408)"/>
<path d="M11.013 3.13713C9.82227 2.11133 8.49652 1.35247 6.92032 1.10202C5.50308 0.877059 4.41579 1.57893 4.09185 2.92567C3.76791 4.26942 4.37679 5.35522 5.77003 5.77664C6.41341 5.9716 7.10028 6.02109 7.56969 6.10358C8.27606 6.03309 8.78596 6.04359 9.25987 5.91911C9.89575 5.75414 10.5481 5.56068 11.1135 5.23974C11.7629 4.86931 11.8274 4.20043 11.3985 3.58855C11.2845 3.42658 11.1615 3.26461 11.013 3.13713ZM6.09247 4.15994C5.69504 4.01447 5.62456 3.71453 5.68455 3.3381C5.74754 2.94667 5.9545 2.70522 6.36092 2.72171C6.66836 2.73371 6.9818 2.7817 7.28025 2.85969C8.12159 3.07864 9.16689 3.66953 9.62581 4.18094C8.42303 4.44039 7.25925 4.58886 6.09247 4.16144V4.15994Z" fill="url(#paint5_linear_9900_5408)"/>
</g>
</g>
<defs>
<linearGradient id="paint0_linear_9900_5408" x1="13.951" y1="22.9454" x2="15.0106" y2="3.30556" gradientUnits="userSpaceOnUse">
<stop stop-color="#FF783D"/>
<stop offset="1" stop-color="#FFC76D"/>
</linearGradient>
<linearGradient id="paint1_linear_9900_5408" x1="13.951" y1="22.9454" x2="15.0106" y2="3.30556" gradientUnits="userSpaceOnUse">
<stop stop-color="#FF783D"/>
<stop offset="1" stop-color="#FFC76D"/>
</linearGradient>
<linearGradient id="paint2_linear_9900_5408" x1="13.951" y1="22.9454" x2="15.0106" y2="3.30556" gradientUnits="userSpaceOnUse">
<stop stop-color="#FF783D"/>
<stop offset="1" stop-color="#FFC76D"/>
</linearGradient>
<linearGradient id="paint3_linear_9900_5408" x1="13.951" y1="22.9454" x2="15.0106" y2="3.30556" gradientUnits="userSpaceOnUse">
<stop stop-color="#FF783D"/>
<stop offset="1" stop-color="#FFC76D"/>
</linearGradient>
<linearGradient id="paint4_linear_9900_5408" x1="13.951" y1="22.9454" x2="15.0106" y2="3.30556" gradientUnits="userSpaceOnUse">
<stop stop-color="#FF783D"/>
<stop offset="1" stop-color="#FFC76D"/>
</linearGradient>
<linearGradient id="paint5_linear_9900_5408" x1="13.951" y1="22.9454" x2="15.0106" y2="3.30556" gradientUnits="userSpaceOnUse">
<stop stop-color="#FF783D"/>
<stop offset="1" stop-color="#FFC76D"/>
</linearGradient>
<clipPath id="clip0_9900_5408">
<rect width="24" height="24" fill="white"/>
</clipPath>
</defs>
</svg>
