<svg width="140" height="56" viewBox="0 0 140 56" fill="none" xmlns="http://www.w3.org/2000/svg">
<path d="M46.2016 5.48307L46.8204 8.53697C46.8445 8.65752 46.949 8.74592 47.0695 8.74592L49.5126 8.77003C49.7778 8.77003 49.8743 9.12364 49.6332 9.26026L47.608 10.3854C47.4955 10.4497 47.4472 10.5783 47.4874 10.6908L48.2429 12.9973C48.3232 13.2544 48.0178 13.4473 47.8169 13.2705L46.073 11.6793C45.9926 11.6069 45.8801 11.5909 45.7837 11.6391L43.6942 12.6919C43.4611 12.8124 43.22 12.5472 43.3566 12.3222L44.3612 10.6506C44.4255 10.5461 44.4094 10.4175 44.321 10.3291L42.9709 8.97094C42.7941 8.79414 42.9387 8.50482 43.1798 8.52893L44.7952 8.70574C44.9318 8.72181 45.0523 8.63341 45.0765 8.49679L45.6872 5.47504C45.7435 5.19376 46.1373 5.19376 46.1935 5.47504L46.2016 5.48307Z" fill="#FFC800"/>
<path d="M52.3577 3.68289L51.988 5.49112C51.972 5.56345 51.9077 5.61167 51.8353 5.61167H50.3888C50.228 5.62774 50.1798 5.83669 50.3164 5.90902L51.5139 6.57605C51.5782 6.6082 51.6103 6.68857 51.5862 6.7609L51.1362 8.12711C51.0879 8.27981 51.2728 8.39232 51.3853 8.28784L52.422 7.34756C52.4702 7.30738 52.5345 7.29131 52.5988 7.32345L53.8364 7.95031C53.9731 8.02264 54.1177 7.8619 54.0374 7.73332L53.4426 6.74482C53.4025 6.68053 53.4185 6.6082 53.4668 6.55998L54.2704 5.75632C54.3749 5.65185 54.2865 5.47504 54.1418 5.49112L53.1855 5.59559C53.1051 5.60363 53.0328 5.54737 53.0167 5.47504L52.6551 3.68289C52.6229 3.51412 52.3899 3.51412 52.3497 3.68289H52.3577Z" fill="#087ADC"/>
<path d="M50.9994 0.0823748L51.1923 1.02265C51.1923 1.02265 51.2325 1.08695 51.2727 1.08695H52.0201C52.1004 1.08695 52.1326 1.19946 52.0602 1.23964L51.4414 1.58521C51.4414 1.58521 51.3932 1.64147 51.4013 1.68165L51.6343 2.38887C51.6584 2.46924 51.562 2.52549 51.5057 2.46924L50.9673 1.97901C50.9673 1.97901 50.903 1.9549 50.8789 1.96293L50.236 2.28439C50.1636 2.32458 50.0913 2.24421 50.1315 2.17188L50.4369 1.65754C50.4369 1.65754 50.4529 1.58521 50.4288 1.5611L50.0109 1.1432C49.9547 1.08695 50.0029 0.998544 50.0752 1.00658L50.5735 1.06284C50.6137 1.06284 50.6539 1.03873 50.6619 0.998544L50.8467 0.0663017C50.8628 -0.0221006 50.9834 -0.0221006 51.0075 0.0663017L50.9994 0.0823748Z" fill="#F31A41"/>
<path d="M57.3887 3.28906L57.6539 4.59098C57.6619 4.6392 57.7101 4.67938 57.7583 4.67938H58.7951C58.9076 4.68742 58.9478 4.84012 58.8513 4.89637L57.9914 5.37053C57.9432 5.39464 57.9271 5.45089 57.9432 5.49911L58.2646 6.47958C58.2968 6.58405 58.1682 6.67245 58.0878 6.59209L57.3485 5.91702C57.3485 5.91702 57.2681 5.87683 57.2279 5.90094L56.3439 6.35099C56.2475 6.39921 56.143 6.2867 56.1992 6.1983L56.6252 5.49108C56.6493 5.45089 56.6413 5.39464 56.6091 5.35446L56.0305 4.77582C55.9581 4.70349 56.0144 4.57491 56.1189 4.59098L56.802 4.66331C56.8582 4.66331 56.9145 4.63116 56.9225 4.57491L57.1797 3.28906C57.2038 3.16851 57.3726 3.16851 57.3967 3.28906H57.3887Z" fill="#CE1FEA"/>
<path d="M53.5792 9.99975L53.8926 11.5588C53.9087 11.6231 53.9569 11.6633 54.0212 11.6633H55.2668C55.4035 11.6714 55.4517 11.8562 55.3311 11.9205L54.3024 12.4911C54.2462 12.5232 54.2221 12.5875 54.2382 12.6518L54.6239 13.8252C54.6641 13.9537 54.5114 14.0582 54.4069 13.9618L53.5149 13.1501C53.4747 13.1099 53.4184 13.1019 53.3622 13.126L52.3013 13.6644C52.1808 13.7207 52.0602 13.5921 52.1245 13.4796L52.6389 12.6277C52.671 12.5795 52.663 12.5072 52.6228 12.467L51.9317 11.7758C51.8433 11.6874 51.9156 11.5347 52.0442 11.5508L52.8639 11.6392C52.9282 11.6392 52.9925 11.599 53.0086 11.5347L53.322 9.99171C53.3541 9.84705 53.555 9.84705 53.5792 9.99171V9.99975Z" fill="#0EB93D"/>
<path d="M9.89302 9.94344C11.4521 9.94344 12.7942 10.1202 13.9193 10.4739C15.0445 10.8275 15.9928 11.2855 16.7643 11.8561C17.5358 12.4267 18.1546 13.0616 18.6207 13.7769C19.0869 14.4921 19.4485 15.2154 19.6976 15.9548C19.9468 16.6942 20.1075 17.4014 20.1879 18.0845C20.2682 18.7676 20.3084 19.3543 20.3084 19.8445C20.3084 20.0534 20.2923 20.3187 20.2522 20.624C20.22 20.9294 20.0914 21.2268 19.8825 21.5081C19.6735 21.7893 19.336 22.0304 18.8699 22.2314C18.4118 22.4323 17.7528 22.5287 16.9009 22.5287C16.6196 22.5287 16.266 22.5126 15.8401 22.4725C15.4141 22.4403 15.0043 22.3439 14.6105 22.1992C14.2167 22.0546 13.8711 21.8376 13.5898 21.5643C13.3086 21.2911 13.1639 20.9053 13.1639 20.4071C13.1639 19.6436 13.1157 18.9524 13.0273 18.3497C12.9389 17.7389 12.7701 17.2246 12.529 16.7986C12.2879 16.3727 11.9584 16.0512 11.5325 15.8182C11.1065 15.5932 10.5601 15.4806 9.89302 15.4806C9.22598 15.4806 8.66342 15.6253 8.2857 15.9146C7.90798 16.2039 7.63474 16.5174 7.46597 16.8629C7.26506 17.2728 7.15255 17.7309 7.12844 18.2452V31.7225C7.16058 32.3494 7.2731 32.8878 7.46597 33.362C7.63474 33.7719 7.90798 34.1496 8.2857 34.4871C8.66342 34.8247 9.19384 34.9934 9.89302 34.9934C10.5922 34.9934 11.1065 34.8568 11.5325 34.5755C11.9584 34.3023 12.2879 33.9246 12.529 33.4584C12.7701 32.9923 12.9389 32.4539 13.0273 31.8431C13.1157 31.2323 13.1639 30.5974 13.1639 29.9304C13.1639 29.7214 13.196 29.4964 13.2684 29.2714C13.3407 29.0464 13.5014 28.8374 13.7586 28.6445C14.0158 28.4517 14.3855 28.2909 14.8837 28.1623C15.382 28.0338 16.049 27.9695 16.9009 27.9695C17.7528 27.9695 18.4037 28.0659 18.8699 28.2588C19.3279 28.4517 19.6655 28.6686 19.8825 28.9178C20.0914 29.1669 20.22 29.408 20.2522 29.6411C20.2843 29.8741 20.3084 30.0268 20.3084 30.0992C20.3084 31.6583 20.0432 33.0486 19.5208 34.2782C18.9985 35.5078 18.2591 36.5445 17.3027 37.3883C16.3464 38.2402 15.2052 38.8831 13.8792 39.3332C12.5531 39.7832 11.0985 40.0002 9.5153 40.0002C9.25813 40.0002 8.84826 39.9761 8.26963 39.9359C7.69903 39.8957 7.05611 39.7832 6.34889 39.5984C5.64167 39.4135 4.91034 39.1403 4.16294 38.7706C3.40751 38.4009 2.7244 37.8866 2.11362 37.2276C1.50284 36.5686 0.988498 35.7489 0.594706 34.7604C0.200914 33.7719 0 32.5744 0 31.16V19.298C0 18.1327 0.144658 17.1121 0.425938 16.22C0.707218 15.3279 1.08494 14.5484 1.54302 13.8894C2.00111 13.2304 2.53152 12.6759 3.12623 12.2339C3.72093 11.7838 4.33171 11.4141 4.95053 11.1168C6.39711 10.4337 8.04461 10.0479 9.90105 9.95148L9.89302 9.94344Z" fill="#09196B"/>
<path d="M26.6646 14.8294C26.6646 14.2347 26.6968 13.656 26.7611 13.0854C26.8254 12.5148 26.97 12.0166 27.195 11.5746C27.4201 11.1325 27.7496 10.7789 28.1755 10.5137C28.6014 10.2485 29.172 10.1119 29.8953 10.1119C30.6186 10.1119 31.2133 10.2485 31.6393 10.5137C32.0652 10.787 32.3867 11.1406 32.6037 11.5746C32.8206 12.0166 32.9653 12.5148 33.0296 13.0854C33.0939 13.656 33.126 14.2347 33.126 14.8294V35.1056C33.126 35.7003 33.0939 36.287 33.0296 36.8576C32.9653 37.4282 32.8206 37.9425 32.6037 38.3846C32.3867 38.8346 32.0652 39.1882 31.6393 39.4615C31.2133 39.7347 30.6347 39.8633 29.8953 39.8633C29.156 39.8633 28.6014 39.7267 28.1755 39.4615C27.7496 39.1962 27.4281 38.8346 27.195 38.3846C26.97 37.9345 26.8254 37.4282 26.7611 36.8576C26.6968 36.287 26.6646 35.7003 26.6646 35.1056V14.8294Z" fill="#09196B"/>
<path d="M60.3053 32.5096C60.3053 32.7347 60.3294 33.024 60.3696 33.3695C60.4098 33.7151 60.5142 34.0607 60.6669 34.3902C60.8196 34.7197 61.0527 35.009 61.3581 35.2501C61.6635 35.4912 62.0814 35.6117 62.6038 35.6117C63.2306 35.6117 63.7128 35.5394 64.0664 35.4028C64.42 35.2581 64.6852 35.0653 64.854 34.8161C65.0228 34.567 65.1272 34.2777 65.1755 33.9482C65.2156 33.6187 65.2397 33.2651 65.2397 32.8954C65.2397 32.7105 65.2719 32.5016 65.3362 32.2685C65.4005 32.0355 65.5532 31.8185 65.7943 31.6095C66.0354 31.4006 66.389 31.2318 66.8712 31.1032C67.3453 30.9666 67.9963 30.9023 68.816 30.9023C69.5634 30.9023 70.1501 30.9907 70.56 31.1595C70.9698 31.3283 71.2752 31.5292 71.4601 31.7622C71.6529 31.9953 71.7574 32.2364 71.7895 32.4855C71.8217 32.7347 71.8297 32.9275 71.8297 33.0722C71.8297 33.9803 71.6931 34.7759 71.4118 35.4671C71.1386 36.1582 70.7609 36.7529 70.2947 37.2512C69.8286 37.7575 69.2902 38.1754 68.6794 38.5129C68.0686 38.8505 67.4257 39.1237 66.7345 39.3166C66.0434 39.5175 65.3523 39.6541 64.645 39.7425C63.9378 39.8309 63.2547 39.8711 62.6038 39.8711C61.4867 39.8711 60.4017 39.7184 59.3489 39.4211C58.2962 39.1237 57.3719 38.6576 56.5522 38.0147C55.7405 37.3798 55.0815 36.5601 54.5833 35.5635C54.085 34.567 53.8359 33.3615 53.8359 31.9631V26.9885C53.8359 25.6464 53.9966 24.5052 54.31 23.5649C54.6315 22.6327 55.0413 21.8531 55.5557 21.2263C56.07 20.5994 56.6406 20.1172 57.2755 19.7717C57.9104 19.4261 58.5614 19.1689 59.2123 18.9921C59.8633 18.8233 60.4821 18.7189 61.0688 18.6707C61.6554 18.6224 62.1617 18.6064 62.5877 18.6064C63.8494 18.6064 64.9504 18.7108 65.8907 18.9278C66.831 19.1448 67.6427 19.4261 68.3258 19.7797C69.0089 20.1333 69.5715 20.5432 70.0135 21.0013C70.4635 21.4593 70.8091 21.9496 71.0663 22.4559C71.3234 22.9622 71.5002 23.4765 71.6047 23.9828C71.7092 24.4891 71.7654 24.9713 71.7654 25.4053C71.7654 25.6303 71.7494 25.8955 71.7253 26.2009C71.6931 26.5063 71.5886 26.7956 71.3958 27.0689C71.2029 27.3421 70.9055 27.5832 70.4957 27.7841C70.0858 27.985 69.5072 28.0815 68.7517 28.0815C68.4865 28.0815 68.149 28.0734 67.7391 28.0493C67.3293 28.0252 66.9435 27.9529 66.5577 27.8243C66.172 27.6957 65.8505 27.4948 65.5773 27.2296C65.304 26.9644 65.1755 26.5786 65.1755 26.0804C65.1755 25.7428 65.1594 25.4133 65.1192 25.0919C65.087 24.7704 64.9826 24.4972 64.8138 24.2561C64.645 24.015 64.3879 23.8221 64.0343 23.6694C63.6887 23.5167 63.1985 23.4444 62.5796 23.4444C62.0573 23.4444 61.6394 23.5328 61.334 23.7015C61.0286 23.8703 60.7955 24.0873 60.6428 24.3364C60.4901 24.5936 60.3857 24.8588 60.3455 25.1401C60.3053 25.4214 60.2812 25.6785 60.2812 25.9036V32.4936L60.3053 32.5096Z" fill="#09196B"/>
<path d="M77.8092 14.8294C77.8092 14.2347 77.8334 13.656 77.8735 13.0854C77.9137 12.5148 78.0343 12.0166 78.2352 11.5746C78.4361 11.1325 78.7335 10.7789 79.1353 10.5137C79.5371 10.2485 80.0997 10.1119 80.823 10.1119C81.5463 10.1119 82.1329 10.2485 82.5348 10.5137C82.9366 10.787 83.2339 11.1406 83.4268 11.5746C83.6197 12.0166 83.7322 12.5148 83.7804 13.0854C83.8206 13.656 83.8447 14.2347 83.8447 14.8294V23.2035H84.1822L88.5622 18.0601C88.8194 17.7627 89.1167 17.5457 89.4542 17.4091C89.7918 17.2725 90.1454 17.2082 90.5151 17.2082C90.8848 17.2082 91.2303 17.2725 91.592 17.4091C91.9536 17.5457 92.2751 17.7386 92.5483 17.9797C92.8216 18.2208 93.0546 18.5262 93.2314 18.8718C93.4082 19.2173 93.4966 19.6111 93.4966 20.0531C93.4966 20.6237 93.2957 21.1461 92.9019 21.6283L89.0765 26.1368L93.2395 34.085C93.4966 34.5913 93.7136 35.1056 93.8985 35.628C94.0833 36.1423 94.1717 36.6406 94.1717 37.1067C94.1717 37.5729 94.0753 37.9666 93.8744 38.3203C93.6734 38.6739 93.4163 38.9712 93.0948 39.2043C92.7733 39.4373 92.4197 39.6141 92.034 39.7347C91.6402 39.8552 91.2625 39.9115 90.8928 39.9115C90.4267 39.9115 90.0088 39.799 89.6391 39.574C89.2694 39.3489 88.9479 39.0677 88.6747 38.7382C88.4015 38.4087 88.1523 38.047 87.9434 37.6613C87.7344 37.2755 87.5576 36.9219 87.413 36.6004L85.0341 31.5454H83.8447V35.1137C83.8447 35.7084 83.8206 36.295 83.7804 36.8656C83.7402 37.4362 83.6197 37.9506 83.4268 38.3926C83.2339 38.8426 82.9366 39.1962 82.5348 39.4695C82.1329 39.7427 81.5623 39.8713 80.823 39.8713C80.0836 39.8713 79.5371 39.7347 79.1353 39.4695C78.7335 39.2043 78.4281 38.8426 78.2352 38.3926C78.0343 37.9425 77.9137 37.4362 77.8735 36.8656C77.8334 36.295 77.8092 35.7084 77.8092 35.1137V14.8374V14.8294Z" fill="#09196B"/>
<path d="M117.373 27.7521C117.373 27.9771 117.357 28.2423 117.333 28.5477C117.301 28.8531 117.196 29.1424 117.003 29.4157C116.81 29.6889 116.513 29.93 116.103 30.1309C115.693 30.3318 115.115 30.4283 114.359 30.4283H105.897V32.4695C105.897 32.8071 105.937 33.1607 106.025 33.5304C106.114 33.9001 106.258 34.2376 106.459 34.551C106.66 34.8644 106.934 35.1216 107.279 35.3145C107.617 35.5154 108.035 35.6118 108.533 35.6118C109.103 35.6118 109.537 35.5476 109.843 35.4109C110.148 35.2743 110.389 35.1136 110.566 34.9127C110.743 34.7118 110.904 34.5028 111.04 34.2778C111.185 34.0528 111.37 33.8358 111.603 33.6429C111.836 33.442 112.165 33.2812 112.583 33.1446C113.001 33.008 113.58 32.9437 114.319 32.9437C114.673 32.9437 115.018 32.9759 115.348 33.0321C115.677 33.0884 115.975 33.1928 116.232 33.3536C116.489 33.5063 116.69 33.7233 116.851 34.0045C117.011 34.2858 117.084 34.6394 117.084 35.0814C117.084 36.0056 116.794 36.7691 116.216 37.3879C115.637 38.0067 114.906 38.497 114.03 38.8667C113.154 39.2363 112.197 39.4935 111.169 39.6542C110.14 39.8069 109.184 39.8873 108.292 39.8873C107.118 39.8712 105.993 39.7266 104.932 39.4373C103.872 39.1479 102.931 38.6979 102.12 38.0791C101.308 37.4522 100.657 36.6405 100.175 35.636C99.6926 34.6314 99.4515 33.3938 99.4515 31.9391V26.9645C99.4515 25.6224 99.6122 24.4812 99.9337 23.5409C100.255 22.6087 100.665 21.8291 101.179 21.2023C101.686 20.5754 102.264 20.0932 102.899 19.7477C103.534 19.4021 104.185 19.1449 104.836 18.9681C105.487 18.7993 106.106 18.6949 106.692 18.6467C107.279 18.6065 107.785 18.5824 108.211 18.5824C109.642 18.5824 110.863 18.7109 111.876 18.9681C112.889 19.2253 113.732 19.5548 114.416 19.9646C115.099 20.3745 115.637 20.8487 116.031 21.3871C116.425 21.9256 116.722 22.4801 116.923 23.0587C117.124 23.6293 117.253 24.216 117.309 24.8027C117.365 25.3893 117.397 25.9439 117.397 26.4502V27.7682L117.373 27.7521ZM105.897 27.2458H111.209C111.209 26.5787 111.193 25.9921 111.153 25.4697C111.121 24.9554 111.008 24.5133 110.831 24.1597C110.654 23.8061 110.381 23.5329 110.004 23.3561C109.626 23.1712 109.095 23.0828 108.396 23.0828C107.818 23.0828 107.359 23.1712 107.022 23.3561C106.692 23.5409 106.435 23.774 106.267 24.0472C106.098 24.3205 105.993 24.6178 105.945 24.9312C105.905 25.2447 105.881 25.5179 105.881 25.759V27.2458H105.897Z" fill="#09196B"/>
<path d="M139.984 27.7411C139.984 27.9661 139.968 28.2313 139.944 28.5367C139.912 28.8421 139.808 29.1314 139.616 29.4047C139.424 29.6779 139.128 29.919 138.72 30.1199C138.312 30.3208 137.736 30.4173 136.984 30.4173H128.559V32.4586C128.559 32.7961 128.599 33.1497 128.687 33.5194C128.775 33.8891 128.919 34.2266 129.119 34.54C129.327 34.8535 129.599 35.1106 129.935 35.3035C130.271 35.5044 130.687 35.6009 131.183 35.6009C131.751 35.6009 132.183 35.5366 132.487 35.3999C132.791 35.2633 133.031 35.1026 133.207 34.9017C133.383 34.7008 133.543 34.4918 133.679 34.2668C133.823 34.0418 134.008 33.8248 134.24 33.6319C134.472 33.431 134.8 33.2703 135.216 33.1336C135.632 32.997 136.208 32.9327 136.944 32.9327C137.296 32.9327 137.64 32.9649 137.968 33.0211C138.296 33.0774 138.592 33.1819 138.848 33.3426C139.104 33.4953 139.304 33.7123 139.464 33.9935C139.616 34.2668 139.696 34.6284 139.696 35.0704C139.696 35.9947 139.408 36.7581 138.832 37.3769C138.256 37.9958 137.528 38.486 136.656 38.8557C135.784 39.2254 134.832 39.4825 133.807 39.6433C132.783 39.7959 131.831 39.8763 130.943 39.8763C129.775 39.8602 128.655 39.7156 127.599 39.4263C126.543 39.1369 125.607 38.6869 124.799 38.0681C123.991 37.4412 123.343 36.6295 122.863 35.625C122.383 34.6204 122.143 33.3828 122.143 31.9282V26.9535C122.143 25.6114 122.303 24.4702 122.615 23.5299C122.935 22.5977 123.343 21.8181 123.855 21.1913C124.359 20.5644 124.935 20.0822 125.567 19.7367C126.199 19.3911 126.847 19.1339 127.495 18.9571C128.143 18.7884 128.759 18.6839 129.343 18.6357C129.927 18.5955 130.431 18.5714 130.855 18.5714C132.279 18.5714 133.495 18.7 134.504 18.9571C135.512 19.2143 136.352 19.5438 137.032 19.9537C137.712 20.3635 138.248 20.8377 138.64 21.3761C139.032 21.9146 139.328 22.4691 139.528 23.0477C139.728 23.6183 139.856 24.205 139.912 24.7917C139.968 25.3783 140 25.9329 140 26.4392V27.7572L139.984 27.7411ZM128.559 27.2348H133.847C133.847 26.5678 133.831 25.9811 133.791 25.4587C133.759 24.9444 133.647 24.5024 133.471 24.1488C133.295 23.7951 133.023 23.5219 132.647 23.3451C132.271 23.1603 131.743 23.0719 131.047 23.0719C130.471 23.0719 130.015 23.1603 129.679 23.3451C129.351 23.5299 129.095 23.763 128.927 24.0362C128.759 24.3095 128.655 24.6068 128.607 24.9203C128.567 25.2337 128.543 25.5069 128.543 25.748V27.2348H128.559Z" fill="#09196B"/>
<path d="M48.0178 36.649L48.2911 25.454C49.9788 25.0281 51.4334 23.7985 52.0683 22.0465C53.0889 19.2337 51.6343 16.1156 48.8215 15.0869C46.0087 14.0582 42.8905 15.5208 41.8618 18.3336C41.2269 20.0856 41.5484 21.9581 42.569 23.3726L35.5853 32.1164C35.1272 32.695 35.079 33.4987 35.4727 34.1175C35.8665 34.7443 36.6139 35.0497 37.3292 34.8809L40.5358 34.1335L38.8642 38.7305C38.7918 38.9233 38.8963 39.1403 39.0892 39.2127L40.7769 39.8234C40.9698 39.8958 41.1867 39.7913 41.2591 39.5984L42.9307 35.0015L44.9077 37.6295C45.2372 38.0715 45.7596 38.3206 46.29 38.3206C46.4668 38.3206 46.6436 38.2965 46.8204 38.2402C47.5196 38.0152 48.0018 37.3723 48.0259 36.6329L48.0178 36.649ZM42.6173 18.6149C43.4932 16.22 46.1453 14.9744 48.5482 15.8503C50.9512 16.7263 52.1808 19.3784 51.3128 21.7813C50.7985 23.1958 49.6492 24.2084 48.3071 24.6182L48.3473 22.9466C49.0224 22.6091 49.585 22.0224 49.8582 21.2509C50.4368 19.6516 49.6091 17.8756 48.0178 17.2969C46.4266 16.7183 44.6425 17.538 44.0638 19.1373C43.7826 19.9088 43.8388 20.7125 44.1362 21.4117L43.0914 22.7216C42.3279 21.5402 42.0949 20.0374 42.6173 18.6149ZM48.3955 21.0661C48.4116 20.3187 47.9616 19.6516 47.2544 19.3945C46.5552 19.1453 45.7756 19.3623 45.3095 19.941L44.7389 20.6562C44.6505 20.2544 44.6666 19.8284 44.8193 19.4105C45.2532 18.2292 46.5632 17.6184 47.7446 18.0443C48.926 18.4703 49.5367 19.7883 49.1108 20.9696C48.9581 21.3795 48.7009 21.7251 48.3714 21.9742L48.3955 21.058V21.0661ZM43.7986 31.6583C43.4691 31.2163 42.9468 30.9671 42.4163 30.9671C42.2878 30.9671 42.1511 30.9832 42.0225 31.0154L39.4589 31.6101L44.6585 25.1004L45.1809 24.4495L45.6229 23.903L45.6069 24.6022L45.5908 25.438L45.3899 33.7639L43.8067 31.6583H43.7986Z" fill="#09196B"/>
</svg>
